<svg xmlns="http://www.w3.org/2000/svg" xmlns:xlink="http://www.w3.org/1999/xlink" version="1.1" x="0px" y="0px" viewBox="0 0 100 125" enable-background="new 0 0 100 100" xml:space="preserve"><path d="M75.522,89H24.478c-0.819,0-1.483-0.665-1.483-1.484v-5.934c0-0.819,0.664-1.484,1.483-1.484h51.045  c0.819,0,1.483,0.665,1.483,1.484v5.934C77.006,88.335,76.342,89,75.522,89z M25.961,86.032h48.078v-2.967H25.961V86.032z"/><path d="M75.523,89H24.478c-0.82,0-1.484-0.663-1.484-1.481V54.245l-1.079,1.051c-0.411,0.4-1.017,0.528-1.557,0.326  C18.117,54.784,8.36,44.948,5.424,41.953c-0.422-0.43-0.541-1.072-0.301-1.625c1.508-3.473,12.665-16.754,14.886-19.382  c5.965-7.055,18.691-9.802,19.23-9.915c0.402-0.084,0.822,0.001,1.159,0.238c2.068,1.449,5.657,2.315,9.603,2.315  c3.945,0,7.534-0.866,9.602-2.315c0.336-0.237,0.757-0.322,1.159-0.238c0.539,0.113,13.265,2.86,19.23,9.915  c3.121,3.691,13.417,15.998,14.886,19.382c0.24,0.553,0.121,1.195-0.301,1.625c-2.937,2.995-12.693,12.831-14.934,13.669  c-0.541,0.202-1.146,0.074-1.557-0.326l-1.079-1.051v33.273C77.007,88.337,76.343,89,75.523,89z M25.961,86.038H74.04V50.731  c0-0.596,0.357-1.134,0.907-1.365c0.549-0.231,1.185-0.111,1.612,0.306l2.769,2.696c2.116-1.618,7.476-6.756,12.368-11.714  c-1.892-3.113-8.132-10.892-13.971-17.797c-4.633-5.479-14.488-8.178-16.99-8.791c-2.6,1.582-6.461,2.48-10.734,2.48  c-4.273,0-8.134-0.898-10.735-2.48c-2.502,0.613-12.357,3.312-16.99,8.791c-5.838,6.905-12.079,14.684-13.971,17.797  c4.886,4.952,10.24,10.083,12.369,11.712l2.767-2.694c0.427-0.417,1.063-0.537,1.612-0.306c0.55,0.231,0.908,0.77,0.908,1.365  V86.038z"/><path d="M50,25.397c-4.168,0-7.34-1.231-9.429-3.663c-3.314-3.858-2.527-9.251-2.492-9.479c0.078-0.506,0.413-0.936,0.885-1.137  c0.471-0.201,1.014-0.145,1.434,0.151c2.068,1.449,5.657,2.315,9.603,2.315c3.945,0,7.534-0.866,9.602-2.315  c0.42-0.296,0.962-0.353,1.434-0.151c0.473,0.201,0.807,0.631,0.885,1.137c0.036,0.229,0.823,5.621-2.492,9.479  C57.34,24.166,54.168,25.397,50,25.397z M40.983,14.938c0.122,1.465,0.555,3.382,1.853,4.883c1.5,1.735,3.911,2.615,7.164,2.615  s5.664-0.88,7.164-2.615c1.297-1.501,1.731-3.417,1.852-4.883c-2.455,1.036-5.604,1.608-9.016,1.608  C46.587,16.547,43.438,15.975,40.983,14.938z"/><path d="M79.123,55.717c-0.381,0-0.754-0.146-1.037-0.421l-3.599-3.505c-0.286-0.278-0.447-0.661-0.447-1.06V28.036  c0-0.253,0.049-6.184,4.372-7.547c0.569-0.179,1.194,0,1.581,0.457c3.12,3.691,13.416,15.998,14.885,19.382  c0.24,0.553,0.121,1.195-0.301,1.625c-2.937,2.995-12.693,12.831-14.934,13.669C79.473,55.686,79.297,55.717,79.123,55.717z   M77.007,50.107l2.319,2.259c2.13-1.629,7.483-6.76,12.37-11.712c-1.808-2.977-7.589-10.213-13.194-16.877  c-1.421,1.268-1.495,4.224-1.495,4.259V50.107z"/><path d="M20.878,55.717c-0.174,0-0.351-0.031-0.52-0.095C18.117,54.784,8.36,44.948,5.424,41.953  c-0.422-0.43-0.541-1.072-0.301-1.625c1.508-3.473,12.665-16.754,14.886-19.382c0.386-0.457,1.011-0.637,1.58-0.457  c4.322,1.363,4.372,7.294,4.372,7.547v22.695c0,0.398-0.162,0.781-0.448,1.06l-3.599,3.505  C21.632,55.57,21.259,55.717,20.878,55.717z M8.305,40.654c4.886,4.952,10.24,10.083,12.369,11.712l2.319-2.259V28.036  c0-0.031-0.062-2.992-1.493-4.26C15.895,30.44,10.113,37.678,8.305,40.654z"/></svg>