<svg xmlns="http://www.w3.org/2000/svg" xmlns:xlink="http://www.w3.org/1999/xlink" version="1.1" x="0px" y="0px" viewBox="0 0 100 100" style="enable-background:new 0 0 100 100;" xml:space="preserve"><g><path d="M50,88.5c21.2,0,38.5-17.3,38.5-38.5S71.2,11.5,50,11.5S11.5,28.8,11.5,50S28.8,88.5,50,88.5z M50,16.5   c18.5,0,33.5,15,33.5,33.5S68.5,83.5,50,83.5S16.5,68.5,16.5,50S31.5,16.5,50,16.5z"/><path d="M33,53h14v14c0,1.4,1.1,2.5,2.5,2.5S52,68.4,52,67V53h15c1.4,0,2.5-1.1,2.5-2.5S68.4,48,67,48H52V33c0-1.4-1.1-2.5-2.5-2.5   S47,31.6,47,33v15H33c-1.4,0-2.5,1.1-2.5,2.5S31.6,53,33,53z"/></g></svg>