<svg xmlns="http://www.w3.org/2000/svg" data-name="Layer 1" viewBox="0 0 100 100" x="0px" y="0px"><title>Artboard 1</title><path d="M36.74,86.5h2.75v1.06a2.77,2.77,0,1,0,5.54,0V86.5H57.95v1.06a2.77,2.77,0,1,0,5.54,0V86.5h2.75a10,10,0,0,0,10-10V33a10,10,0,0,0-10-10H63.49V17.62a6,6,0,0,0-6-6h-12a6,6,0,0,0-6,6V23H36.74a10,10,0,0,0-10,10V76.5A10,10,0,0,0,36.74,86.5ZM43,87.56a.77.77,0,1,1-1.54,0V85.5h0V83.44a.77.77,0,1,1,1.54,0Zm18.46,0a.77.77,0,1,1-1.54,0V83.44a.77.77,0,1,1,1.54,0Zm-20-69.94a4,4,0,0,1,4-4h12a4,4,0,0,1,4,4V23H59.95V19.64a4.4,4.4,0,0,0-4.39-4.39H47.42A4.4,4.4,0,0,0,43,19.64V23H41.49ZM57.95,23H45V19.64a2.39,2.39,0,0,1,2.39-2.39h8.14a2.39,2.39,0,0,1,2.39,2.39ZM28.74,33a8,8,0,0,1,8-8h29.5a8,8,0,0,1,8,8V76.5a8,8,0,0,1-8,8H63.49V83.44a2.77,2.77,0,1,0-5.54,0V84.5H45V83.44a2.77,2.77,0,1,0-5.54,0V84.5H36.74a8,8,0,0,1-8-8Z"/><path d="M40.3,79.07H62.67a7.84,7.84,0,0,0,7.83-7.83v-33a7.84,7.84,0,0,0-7.83-7.83H40.3a7.84,7.84,0,0,0-7.83,7.83v33A7.84,7.84,0,0,0,40.3,79.07ZM34.47,38.25a5.83,5.83,0,0,1,5.83-5.83H62.67a5.83,5.83,0,0,1,5.83,5.83v33a5.83,5.83,0,0,1-5.83,5.83H40.3a5.83,5.83,0,0,1-5.83-5.83Z"/><path d="M40.5,46.5H57.95v3.17a1,1,0,0,0,2,0V46.5h2.54a1,1,0,0,0,0-2h-22a1,1,0,0,0,0,2Z"/></svg>