<svg xmlns="http://www.w3.org/2000/svg" data-name="Layer 1" viewBox="0 0 100 100" x="0px" y="0px"><title>Artboard 15</title><path d="M58.66,25H40.15a5.8,5.8,0,0,0-5.79,5.79v.63a3.79,3.79,0,0,1-3.79,3.79H22.93A5.8,5.8,0,0,0,17.14,41v28.1a5.8,5.8,0,0,0,5.79,5.79H75.88a5.8,5.8,0,0,0,5.79-5.79V41a5.8,5.8,0,0,0-5.79-5.79H68.24a3.79,3.79,0,0,1-3.79-3.79v-.62A5.8,5.8,0,0,0,58.66,25ZM19.14,45.26h3.69a4,4,0,0,1,4,4V60.2a4,4,0,0,1-4,4H19.14Zm49.1-8.06h7.63A3.79,3.79,0,0,1,79.67,41v28.1a3.79,3.79,0,0,1-3.79,3.79H22.93a3.79,3.79,0,0,1-3.79-3.79V66.2h3.69a6,6,0,0,0,6-6V49.26a6,6,0,0,0-6-6H19.14V41a3.79,3.79,0,0,1,3.79-3.79h7.63a5.8,5.8,0,0,0,5.79-5.79v-.62A3.79,3.79,0,0,1,40.15,27H58.66a3.79,3.79,0,0,1,3.79,3.79v.63A5.8,5.8,0,0,0,68.24,37.21Z"/><path d="M49.4,44.45A10.28,10.28,0,1,0,59.69,54.73,10.29,10.29,0,0,0,49.4,44.45ZM49.4,63a8.28,8.28,0,1,1,8.28-8.28A8.29,8.29,0,0,1,49.4,63Z"/><path d="M40.12,33.85H58.69a1,1,0,0,0,0-2H40.12a1,1,0,0,0,0,2Z"/><path d="M49.4,38.78A15.95,15.95,0,1,0,65.35,54.73,16,16,0,0,0,49.4,38.78Zm0,29.9A13.95,13.95,0,1,1,63.35,54.73,14,14,0,0,1,49.4,68.68Z"/><path d="M49.55,48.73a6,6,0,0,0-6,6,1,1,0,0,0,2,0,4,4,0,0,1,4-4,1,1,0,0,0,0-2Z"/><path d="M49.55,52.25a2.49,2.49,0,0,0-2.48,2.48,1,1,0,0,0,2,0,.48.48,0,0,1,.48-.48,1,1,0,0,0,0-2Z"/><path d="M72,43.34a1.93,1.93,0,0,1,1.93,1.93V62.42a1,1,0,1,0,2,0V45.26A3.93,3.93,0,0,0,72,41.34a1,1,0,0,0,0,2Z"/></svg>