<svg xmlns="http://www.w3.org/2000/svg" data-name="Layer 1" viewBox="0 0 100 100" x="0px" y="0px"><title>Artboard 9</title><path d="M62.6,62.58A6.77,6.77,0,0,0,67,64.14,8.16,8.16,0,0,0,68.42,64a9.8,9.8,0,0,0,7.86-9.26,6.82,6.82,0,0,0-2.38-5.34A7,7,0,0,0,68.08,48a9.8,9.8,0,0,0-7.86,9.26A6.82,6.82,0,0,0,62.6,62.58Zm-.3-4.52,2.31-.41a12.36,12.36,0,0,0,.94,4.27,4.58,4.58,0,0,1-1.67-.88A4.69,4.69,0,0,1,62.3,58.07ZM68.42,50h0a.33.33,0,0,1,.15.08c.61.51,1.21,2.24,1.33,4.66l-3.29.58C66.84,51.94,67.93,50,68.42,50Zm1.46,6.78C69.66,60.06,68.57,62,68.08,62c0,0-.1,0-.15-.08-.61-.51-1.21-2.24-1.33-4.66Zm1.3,3.93a16.52,16.52,0,0,0,.72-4.29l2.25-.4A7.83,7.83,0,0,1,71.19,60.66Zm3-6.72-2.31.41A12.37,12.37,0,0,0,71,50.08a4.57,4.57,0,0,1,1.66.87A4.69,4.69,0,0,1,74.2,53.93Zm-8.89-2.59a16.52,16.52,0,0,0-.72,4.29l-2.25.4A7.83,7.83,0,0,1,65.31,51.34Z"/><path d="M59.66,73.53h.15L77,70.85a1,1,0,1,0-.31-2L59.5,71.54a1,1,0,0,0,.15,2Z"/><path d="M42.54,41.33a1,1,0,1,0-.7-1.87l-.9.34a1,1,0,1,0,.7,1.87Z"/><path d="M46.33,37.77l-.9.34a1,1,0,1,0,.7,1.87l.9-.34a1,1,0,1,0-.7-1.87Z"/><path d="M37.35,41.14l-.9.34a1,1,0,1,0,.7,1.87l.9-.34a1,1,0,1,0-.7-1.87Z"/><path d="M50.27,38.36a1,1,0,0,0,.35-.06l.9-.34a1,1,0,1,0-.7-1.87l-.9.34a1,1,0,0,0,.35,1.94Z"/><path d="M42.24,49.85a1,1,0,0,0-.58,1.29L47,65.4a1,1,0,0,0,1.87-.7L43.53,50.44A1,1,0,0,0,42.24,49.85Z"/><path d="M36.11,36.38A1,1,0,0,0,37.4,37L47.7,33.1a1,1,0,0,0,.58-1.29l-3.14-8.37a1,1,0,0,0-1.29-.58l-10.3,3.87A1,1,0,0,0,33,28Zm7.51-11.3,2.44,6.5-8.43,3.16-2.44-6.5Z"/><path d="M12.75,48.46A4,4,0,0,1,13.92,54a1,1,0,0,0,.29,1.38L42.59,73.79l1.69,4.5a1,1,0,0,0,1.29.58,4,4,0,0,1,4.93,1.86v5.1a1,1,0,0,0,1,1h.15l32.17-5a1,1,0,0,0,.85-1V35.17a1,1,0,0,0-1.15-1L75,35.5V30.83a1,1,0,0,0-1.38-.92l-5.18,2.15V26.83a1,1,0,0,0-1.64-.77l-10,8.34-5.62-15a1,1,0,0,0-1.29-.58,4,4,0,0,1-5.15-2.34,1,1,0,0,0-1.29-.58l-14.2,5.33a1,1,0,0,0-.58,1.29,4,4,0,0,1-2.34,5.15A1,1,0,0,0,25.77,29l1.59,4.24a4,4,0,0,1-5.27.85,1,1,0,0,0-1.38.29L12.45,47.08A1,1,0,0,0,12.75,48.46ZM82.67,80,52.5,84.67V41l30.17-4.69ZM73,35.81,59.58,37.9,73,32.33Zm-6.56-2.92-9.28,3.85L66.44,29Zm-36-6.46a6,6,0,0,0,.43-3.62l12.48-4.69A6,6,0,0,0,49.65,21l5.11,13.61-.36.13A1,1,0,0,0,53.82,36a1,1,0,0,0,.45.51L50.86,39.4l0,0-.06.06a3.1,3.1,0,0,0-.17.26l0,.05a1,1,0,0,0,0,.17,1,1,0,0,0,0,.15s0,0,0,0h0V53.36l-1.82-4.85a1,1,0,0,0-1.87.7L50.5,59V77.77a6,6,0,0,0-4.67-1L33.76,44.58a1,1,0,0,0-.67-1.79L28,29.13A6,6,0,0,0,30.41,26.43ZM32,45.56,27.19,53l-5.82-3.78,4.9-7.55,5.63,3.65ZM21.88,36.22a5.91,5.91,0,0,0,6.25-1l2.58,6.88-4.2-2.73a1,1,0,0,0-1.38.29l-6,9.23a1,1,0,0,0,.29,1.38l7.5,4.87a1,1,0,0,0,.54.16l.21,0a1,1,0,0,0,.63-.43l4.55-7,1.7,4.53-.26.4a1,1,0,0,0,.84,1.54l.15,0,6.11,16.29L29.82,63.12a1,1,0,0,0-1.42-.92l-12.33-8a6,6,0,0,0-1.45-6.8Z"/><path d="M32.35,57.67a1,1,0,0,0,1.38-.29l.45-.69a1,1,0,0,0-1.68-1.09l-.45.69A1,1,0,0,0,32.35,57.67Z"/><path d="M30.1,61.14a1,1,0,0,0,1.38-.29l.45-.69a1,1,0,1,0-1.68-1.09l-.45.69A1,1,0,0,0,30.1,61.14Z"/></svg>