<svg xmlns="http://www.w3.org/2000/svg" xmlns:xlink="http://www.w3.org/1999/xlink" version="1.1" x="0px" y="0px" viewBox="0 0 100 125" enable-background="new 0 0 100 100" xml:space="preserve"><g><path d="M32.313,23.935c0.021,0.002,0.047,0.003,0.075,0.003c0.45,0,1.742-0.206,2.78-2.342c0.39,1.424,1.298,3.138,3.422,3.466   c0.038,0,0.103,0.006,0.19,0.013c0.277,0.022,0.555,0.039,0.821,0.039c0.68,0,1.287-0.105,1.646-0.482   c0.14-0.146,0.21-0.326,0.247-0.52c0.725-0.44,1.546-0.884,1.931-1.023c0.341,0.6,0.491,2.578,0.414,4.285v10   c0,0.276,0.224,0.5,0.5,0.5h0.187v53c0,0.276,0.224,0.5,0.5,0.5c0.276,0,0.5-0.224,0.5-0.5v-53h0.938v53c0,0.276,0.224,0.5,0.5,0.5   c0.276,0,0.5-0.224,0.5-0.5v-53h0.125c0.276,0,0.5-0.224,0.5-0.5V27.186c0-1.295,0.388-3.742,0.549-4.698   c0.328-0.014,0.657-0.037,0.797-0.048c0.191,0.028,0.448-0.012,0.695-0.188c0.008-0.005,0.014-0.014,0.021-0.02   c0.002-0.001,0.004-0.001,0.006-0.002c0.008-0.006,0.011-0.014,0.018-0.02c0.697-0.548,1.039-2.004,1.039-4.461l0.002-1.064   c0.007-2.875,0.009-3.951-0.579-4.54c-0.351-0.351-0.811-0.396-1.173-0.396c-1.71,0-6.421-0.656-7.397-2.204   c-0.002-0.004-0.008-0.005-0.01-0.009c-0.04-0.061-0.091-0.115-0.158-0.154c-0.121-0.071-2.952-1.715-4.643,0.088   c-0.516,0.549-0.879,1.076-1.134,1.535c-0.264-0.771-0.659-1.553-1.22-1.781c-1.209-0.493-6.539-1.375-9.033,1.478   c-0.779,0.891-1.335,1.814-1.716,2.756c-0.302,0.621-0.499,1.419-0.567,2.228c-0.072,0.868,0.001,1.704,0.206,2.354   c0.057,0.182,0.124,0.33,0.193,0.466c0.19,0.59,0.428,1.181,0.764,1.772c0.013,0.023,0.054,0.077,0.069,0.097   C25.587,21.34,27.851,23.622,32.313,23.935z M47.091,27.186v9.688h-0.125h-1.938h-0.187l-0.001-9.477   c0.042-0.901,0.107-3.675-0.579-4.861c0.243-0.347,0.743-0.908,1.398-1.087c0.034-0.003,0.065-0.012,0.1-0.012   c0.416,0,0.776,0.061,1.072,0.142c0.277,0.133,0.56,0.323,0.848,0.593C47.532,23.025,47.091,25.726,47.091,27.186z M50.063,13.133   c0.158,0.55,0.158,1.754,0.154,3.549l-0.002,1.065c0,1.671-0.166,2.589-0.334,3.096c-0.299-0.652-0.666-1.753-0.666-3.262   C49.216,15.774,49.739,14.037,50.063,13.133z M41.091,17.132c0.043-2.292,0.549-4.954,0.839-6.309   c1.875,1.435,5.827,1.854,7.211,1.915c-0.35,0.956-0.925,2.832-0.925,4.843c0,1.84,0.484,3.151,0.849,3.882   c-0.155,0.01-0.338,0.021-0.522,0.028c-0.239-0.342-0.71-0.634-1.298-0.824c-0.508-0.242-1.019-0.34-1.53-0.272   c-0.17,0.023-0.33,0.068-0.484,0.121c-0.752,0.175-1.418,0.704-1.89,1.558c-0.348,0.081-0.919,0.325-1.916,0.911   C41.285,21.813,41.047,19.445,41.091,17.132z M36.308,17.453c0.26-2.662,0.23-4.445,0.222-4.766   c0.036-0.193,0.282-1.282,1.457-2.534c0.885-0.942,2.42-0.384,3.083-0.075c-0.25,1.086-0.927,4.264-0.979,7.036   c-0.061,3.248,0.401,6.487,0.44,6.75c-0.001,0.026-0.009,0.051-0.006,0.077c-0.091,0.094-0.424,0.236-1.664,0.137   c-0.125-0.011-0.219-0.018-0.193-0.011c-2.626-0.409-2.785-4.087-2.794-4.438C36.041,18.997,36.19,18.282,36.308,17.453z    M26.623,11.358c1.146-1.309,3.011-1.663,4.649-1.663c1.587,0,2.96,0.333,3.255,0.453c0.304,0.124,0.778,1.337,1.002,2.558   c0.007,0.267,0.037,2.046-0.215,4.628c-0.808,5.677-2.856,5.617-2.938,5.603c-4.172-0.292-6.239-2.511-6.757-3.154   c-0.09-0.159-0.152-0.317-0.231-0.475c0.318-0.086,0.721-0.348,1.078-1.046c0.31-0.607,0.521-1.419,0.593-2.288   c0.135-1.625-0.252-3.293-1.225-3.595C26.066,12.036,26.328,11.696,26.623,11.358z M24.838,14.446   c0.005-0.017,0.01-0.034,0.016-0.051c0.05-0.165,0.129-0.328,0.193-0.491c0.191-0.392,0.386-0.592,0.482-0.592   c0.002,0,0.004,0,0.005,0c0.19,0.016,0.668,0.927,0.53,2.578c-0.062,0.731-0.238,1.429-0.487,1.915   c-0.217,0.424-0.419,0.523-0.463,0.54c-0.031-0.003-0.117-0.079-0.212-0.251C24.52,16.857,24.485,15.638,24.838,14.446z"/><path d="M68.077,11.649c-2.527-2.239-6.107-1.855-6.29-1.833c-4.008,0.031-7.259,3.492-7.259,7.745   c0,3.114,1.721,5.855,4.396,7.088c0.145,1.352,0.28,8.352,0.334,12.731c0.004,0.273,0.227,0.494,0.5,0.494h0.208v53   c0,0.276,0.224,0.5,0.5,0.5c0.276,0,0.5-0.224,0.5-0.5v-53h0.916v53c0,0.276,0.224,0.5,0.5,0.5c0.276,0,0.5-0.224,0.5-0.5v-53   h0.334c0.267,0,0.486-0.21,0.499-0.476c0.003-0.053,0.25-5.282,0.25-7.915c0.061-2.076,0.196-3.923,0.251-4.612   c0.045-0.016,0.088-0.036,0.132-0.054c0.02-0.001,0.039-0.002,0.06-0.006c0.016-0.003,0.46-0.101,1.094-0.344   c1.246,1.159,2.605,1.583,3.886,1.583c1.87,0,3.572-0.889,4.507-1.652c1.642-1.341,4.198-5.408,1.619-9.422   C73.092,11.21,68.816,11.556,68.077,11.649z M67.427,12.407c1.345,1.198,2.026,3.028,2.026,5.44c0,1.735-0.647,2.982-1.484,3.879   c0.741-1.222,1.184-2.652,1.184-4.166c0-2.159-0.839-4.113-2.189-5.519C67.122,12.154,67.277,12.274,67.427,12.407z M63.243,24.504   c-0.011,0.135-0.201,2.376-0.277,4.963c0,2.156-0.166,6.055-0.227,7.406h-0.356h-1.916h-0.215   c-0.036-2.768-0.166-11.38-0.376-12.583c-0.026-0.543-0.074-1.785-0.067-2.609c0.325,0.115,0.663,0.195,1.015,0.244   c0.195,0.03,0.401,0.051,0.616,0.061c0.03,0.001,0.059,0.009,0.089,0.009c0.021,0,0.041-0.006,0.062-0.006   c0.544,0.009,1.133-0.06,1.733-0.283C63.246,22.838,63.243,24.345,63.243,24.504z M61.615,20.985   c-0.804-0.011-1.471-0.237-1.807-0.375c-1.379-0.63-2.342-1.979-2.342-3.551c0-2.17,1.822-3.935,4.062-3.935   c2.24,0,4.063,1.766,4.063,3.935C65.591,19.2,63.814,20.94,61.615,20.985z M64.249,23.801c0.012-0.862,0.048-2.058,0.132-2.671   c1.332-0.89,2.21-2.382,2.21-4.072c0-2.722-2.272-4.935-5.063-4.935c-2.791,0-5.062,2.214-5.062,4.935   c0,1.749,0.945,3.279,2.357,4.156c-0.029,0.597-0.005,1.573,0.019,2.284c-2.01-1.167-3.314-3.457-3.314-5.938   c0-3.721,2.832-6.748,6.313-6.748c3.48,0,6.312,3.027,6.312,6.748C68.153,20.298,66.578,22.768,64.249,23.801z M66.938,23.777   c1.656-0.972,3.515-2.766,3.515-5.93c0-1.706-0.316-3.161-0.94-4.355c0.991,0.656,2.183,1.71,2.827,3.258   c0.164,0.395,0.848,3.605-1.052,5.361C70.146,23.17,68.824,24.063,66.938,23.777z M73.262,23.623   c-0.031,0.026-2.587,2.078-5.278,1.204c1.711-0.119,2.994-1.064,3.985-1.98c2.191-2.027,1.646-5.639,1.296-6.479   c-0.734-1.766-2.053-2.954-3.158-3.692c1.419,0.201,3.295,0.866,4.565,2.842C77.106,19.304,74.179,22.874,73.262,23.623z"/></g></svg>