<svg xmlns="http://www.w3.org/2000/svg" xmlns:xlink="http://www.w3.org/1999/xlink" version="1.1" x="0px" y="0px" viewBox="0 0 100 100" style="enable-background:new 0 0 100 100;" xml:space="preserve"><path d="M63.8,44.5H19c-3,0-5.5,2.5-5.5,5.5v0c0,3,2.5,5.5,5.5,5.5h44.9c3,0,5.5-2.5,5.5-5.5v0C69.3,46.9,66.9,44.5,63.8,44.5z"/><path d="M44.4,13H19c-3,0-5.5,2.5-5.5,5.5v0c0,3,2.5,5.5,5.5,5.5h25.4c3,0,5.5-2.5,5.5-5.5v0C49.9,15.5,47.4,13,44.4,13z"/><path d="M81.3,75.9H19c-3,0-5.5,2.5-5.5,5.5v0c0,3,2.5,5.5,5.5,5.5h62.4c3,0,5.5-2.5,5.5-5.5v0C86.8,78.4,84.4,75.9,81.3,75.9z"/></svg>