<?xml version="1.0" encoding="iso-8859-1"?>
<!-- Generator: Adobe Illustrator 19.0.0, SVG Export Plug-In . SVG Version: 6.00 Build 0)  -->
<svg version="1.1" id="Layer_1" xmlns="http://www.w3.org/2000/svg" xmlns:xlink="http://www.w3.org/1999/xlink" x="0px" y="0px"
	 viewBox="0 0 512 512" style="enable-background:new 0 0 512 512;" xml:space="preserve">
<path style="fill:#FFCA28;" d="M326.063,165.421c-11.092,0-20.083-8.991-20.083-20.083V92.849c0-4.207-3.423-7.631-7.631-7.631
	H213.65c-4.207,0-7.631,3.423-7.631,7.631v52.489c0,11.092-8.991,20.083-20.083,20.083c-11.092,0-20.083-8.991-20.083-20.083V92.849
	c0-26.355,21.442-47.797,47.797-47.797h84.699c26.355,0,47.797,21.442,47.797,47.797v52.489
	C346.146,156.43,337.155,165.421,326.063,165.421z"/>
<g style="opacity:0.1;">
	<path d="M185.937,165.421c11.092,0,20.083-8.991,20.083-20.083V97.221h-40.166v48.116
		C165.854,156.43,174.845,165.421,185.937,165.421z"/>
	<path d="M305.98,97.221v48.116c0,11.092,8.991,20.083,20.083,20.083s20.083-8.991,20.083-20.083V97.221H305.98z"/>
</g>
<path style="fill:#FF6F43;" d="M460.814,122.325H51.186c-24.11,0-43.654,19.545-43.654,43.654v246.275
	c0,24.11,19.545,43.654,43.654,43.654h409.629c24.11,0,43.655-19.545,43.655-43.654V165.979
	C504.469,141.87,484.924,122.325,460.814,122.325z"/>
<path style="opacity:0.1;enable-background:new    ;" d="M47.697,412.255V165.979c0-24.11,19.545-43.654,43.654-43.654H51.186
	c-24.11,0-43.654,19.545-43.654,43.654v246.275c0,24.11,19.545,43.654,43.654,43.654h40.166
	C67.242,455.908,47.697,436.364,47.697,412.255z"/>
<g>
	<path style="fill:#FFCA28;" d="M114.54,111.286H90.19c-7.141,0-12.928,5.789-12.928,12.928v329.805
		c0,7.141,5.789,12.928,12.928,12.928h24.35c7.141,0,12.928-5.789,12.928-12.928V124.215
		C127.468,117.074,121.68,111.286,114.54,111.286z"/>
	<path style="fill:#FFCA28;" d="M397.46,111.286h24.35c7.141,0,12.928,5.789,12.928,12.928v329.805
		c0,7.141-5.789,12.928-12.928,12.928h-24.35c-7.141,0-12.928-5.789-12.928-12.928V124.215
		C384.531,117.074,390.32,111.286,397.46,111.286z"/>
</g>
<path style="fill:#8BC34A;" d="M318.575,331.642l-68.68,28.968c-6.638,2.8-9.749,10.45-6.95,17.089l12.878,30.533
	c2.8,6.638,10.45,9.749,17.089,6.95l68.68-28.968c6.638-2.8,9.749-10.45,6.95-17.089l-12.878-30.533
	C332.864,331.955,325.213,328.843,318.575,331.642z"/>
<ellipse style="fill:#FFF9C5;" cx="308.295" cy="218.865" rx="41.281" ry="29.746"/>
<path style="fill:#8FE5F7;" d="M244.004,300.36l-22.468-50.58c-2.352-5.293-7.358-8.921-13.121-9.505l-21.718-2.204
	c-5.686-0.577-11.254,1.896-14.638,6.502l-12.924,17.593c-3.429,4.667-4.094,10.816-1.743,16.109l22.468,50.58
	c3.619,8.147,13.156,11.818,21.303,8.199l34.642-15.389C243.952,318.044,247.623,308.507,244.004,300.36z M195.594,277.828
	c-4.733,2.102-10.273-0.03-12.375-4.763c-2.103-4.733,0.03-10.272,4.763-12.375c4.733-2.103,10.273,0.03,12.375,4.763
	C202.459,270.184,200.326,275.725,195.594,277.828z"/>
<path d="M342.604,335.666c-3.223-7.644-10.668-12.583-18.964-12.583c-2.752,0-5.44,0.545-7.991,1.621l-68.68,28.968
	c-10.453,4.409-15.372,16.501-10.962,26.954l12.878,30.533c3.223,7.644,10.668,12.582,18.963,12.583h0.001
	c2.751,0,5.44-0.545,7.99-1.621l68.68-28.968c10.453-4.409,15.372-16.501,10.962-26.954L342.604,335.666z M338.665,379.275
	l-68.68,28.968c-0.687,0.29-1.405,0.437-2.136,0.437l0,0c-2.225,0-4.221-1.324-5.086-3.374l-12.878-30.533
	c-1.182-2.802,0.137-6.041,2.937-7.222l68.68-28.968c0.688-0.29,1.406-0.437,2.137-0.437c2.225,0,4.221,1.324,5.085,3.374
	l12.878,30.532C342.784,374.853,341.467,378.093,338.665,379.275z"/>
<path d="M274.703,246.012c9.069,6.535,20.998,10.134,33.591,10.134s24.522-3.599,33.591-10.134
	c9.813-7.072,15.218-16.712,15.218-27.144s-5.404-20.071-15.218-27.143c-9.068-6.535-20.998-10.134-33.591-10.134
	s-24.522,3.599-33.591,10.134c-9.813,7.072-15.218,16.712-15.218,27.143S264.889,238.94,274.703,246.012z M308.294,196.653
	c18.293,0,33.746,10.173,33.746,22.215s-15.454,22.216-33.746,22.216s-33.746-10.173-33.746-22.216
	C274.547,206.827,290.001,196.653,308.294,196.653z"/>
<path d="M172.977,331.911c3.796,8.544,12.291,14.066,21.642,14.066c3.32,0,6.55-0.688,9.602-2.042l34.641-15.388
	c5.779-2.568,10.212-7.231,12.484-13.132c2.27-5.9,2.108-12.333-0.46-18.112l-22.468-50.579
	c-3.439-7.744-10.814-13.086-19.244-13.942c-7.934-0.805-16.134-2.325-24.111-2.325c-7.501,0-14.632,3.61-19.075,9.657
	l-12.924,17.593c-5.017,6.828-5.996,15.882-2.556,23.625L172.977,331.911z M165.204,266.623c0,0,12.918-17.586,12.923-17.593
	c1.777-2.42,4.821-3.773,7.808-3.468l21.718,2.204c3.067,0.311,5.748,2.254,6.999,5.071l22.468,50.579
	c0.934,2.102,0.993,4.441,0.167,6.588c-0.825,2.146-2.438,3.842-4.54,4.776l-34.641,15.388c-1.114,0.495-2.286,0.746-3.486,0.746
	c-3.404,0-6.496-2.009-7.878-5.119l-22.468-50.58C163.024,272.399,163.38,269.108,165.204,266.623z"/>
<circle cx="191.793" cy="269.253" r="9.376"/>
<path d="M51.186,463.439h20.861c3.415,6.55,10.259,11.04,18.143,11.04h24.35c7.884,0,14.728-4.49,18.143-11.04h246.635
	c3.415,6.55,10.259,11.04,18.143,11.04h24.35c7.884,0,14.728-4.49,18.143-11.04h20.861c28.224,0,51.186-22.962,51.186-51.186
	V228.681c0-4.159-3.372-7.531-7.531-7.531c-4.159,0-7.531,3.372-7.531,7.531v183.574c0,19.918-16.205,36.123-36.123,36.123H442.27
	V129.856h18.545c19.918,0,36.123,16.205,36.123,36.123v32.577c0,4.159,3.372,7.531,7.531,7.531c4.159,0,7.531-3.372,7.531-7.531
	v-32.577c0-28.224-22.962-51.186-51.186-51.186h-20.861c-3.415-6.55-10.259-11.04-18.143-11.04h-24.35
	c-7.884,0-14.728,4.49-18.143,11.04h-25.64V92.849c0-30.508-24.82-55.328-55.328-55.328H213.65
	c-30.508,0-55.328,24.82-55.328,55.328v21.945h-25.64c-3.415-6.55-10.259-11.04-18.143-11.04H90.19
	c-7.884,0-14.728,4.49-18.143,11.04H51.186C22.962,114.794,0,137.756,0,165.979v184.204c0,4.159,3.372,7.531,7.531,7.531
	s7.531-3.372,7.531-7.531V165.979c0-19.918,16.205-36.123,36.123-36.123h18.544v318.521H51.186
	c-19.918,0-36.123-16.204-36.123-36.122v-31.947c0-4.159-3.372-7.531-7.531-7.531S0,376.148,0,380.307v31.947
	C0,440.478,22.962,463.439,51.186,463.439z M397.46,118.817h24.35c2.976,0,5.397,2.421,5.397,5.397l0,0v329.804l0,0
	c0,2.976-2.422,5.397-5.397,5.397h-24.35c-2.976,0-5.397-2.421-5.397-5.397l0,0V124.215l0,0
	C392.062,121.238,394.484,118.817,397.46,118.817z M173.385,92.849c0-22.203,18.063-40.265,40.265-40.265h84.699
	c22.202,0,40.265,18.063,40.265,40.265v21.945h-25.104V92.849c0-8.361-6.801-15.162-15.162-15.162H213.65
	c-8.361,0-15.162,6.801-15.162,15.162v21.945h-25.104V92.849z M213.551,114.794V92.849c0-0.048,0.051-0.099,0.099-0.099h84.699
	c0.047,0,0.099,0.052,0.099,0.099v21.945H213.551z M90.19,118.817h24.35c2.976,0,5.397,2.422,5.397,5.397v42.209
	c0,3.148,2.089,6.078,5.058,7.115c4.802,1.677,10.004-2.037,10.004-7.115v-36.567H377v318.521H134.999V196.548
	c0-4.159-3.372-7.531-7.531-7.531s-7.531,3.372-7.531,7.531v257.472c0,2.976-2.422,5.397-5.397,5.397H90.19
	c-2.976,0-5.397-2.422-5.397-5.397V124.216C84.792,121.238,87.214,118.817,90.19,118.817z"/>
<g>
</g>
<g>
</g>
<g>
</g>
<g>
</g>
<g>
</g>
<g>
</g>
<g>
</g>
<g>
</g>
<g>
</g>
<g>
</g>
<g>
</g>
<g>
</g>
<g>
</g>
<g>
</g>
<g>
</g>
</svg>
