<svg xmlns="http://www.w3.org/2000/svg" data-name="Layer 1" viewBox="0 0 100 100" x="0px" y="0px"><title>Artboard 42</title><path d="M71.88,25.12a1,1,0,0,0-1.26-.64,69.09,69.09,0,0,1-43.13,0,1,1,0,0,0-1.26.64L14.37,61.44a3,3,0,0,0,1.92,3.78l24.42,8a3,3,0,0,0,3.78-1.92l3.6-11a1,1,0,0,1,1.9,0l3.6,11a3,3,0,0,0,3.78,1.92l24.42-8a3,3,0,0,0,1.92-3.78ZM27.81,26.68a71,71,0,0,0,42.47,0l1.65,5a75.93,75.93,0,0,1-45.76,0ZM81.76,62.83a1,1,0,0,1-.58.5l-24.42,8a1,1,0,0,1-1.26-.64l-3.6-11a3,3,0,0,0-5.7,0l-3.6,11a1,1,0,0,1-1.26.64l-24.42-8a1,1,0,0,1-.64-1.26l9.27-28.43A78.29,78.29,0,0,0,49,37.28a78.29,78.29,0,0,0,23.5-3.64l9.27,28.43A1,1,0,0,1,81.76,62.83Z"/><path d="M34.48,38.12a1,1,0,0,0-1.41,0l-9.15,9.15a1,1,0,1,0,1.41,1.41l8.44-8.44,1.29,1.29-4.81,4.81a1,1,0,0,0,1.41,1.41l5.52-5.52a1,1,0,0,0,0-1.41Z"/><path d="M65,38.12a1,1,0,0,0-1.41,0l-2.71,2.71a1,1,0,0,0,0,1.41l5.52,5.52a1,1,0,0,0,1.41-1.41L63,41.54l1.29-1.29,8.44,8.44a1,1,0,0,0,1.41-1.41Z"/></svg>