<svg xmlns="http://www.w3.org/2000/svg" xmlns:xlink="http://www.w3.org/1999/xlink" version="1.1" x="0px" y="0px" viewBox="0 0 100 125" enable-background="new 0 0 100 100" xml:space="preserve"><g><path d="M66.172,20.454c0.075-0.927-0.223-1.805-0.839-2.472c-0.615-0.667-1.467-1.036-2.396-1.036H38.126   c-0.928,0-1.779,0.368-2.395,1.034c-0.616,0.667-0.914,1.545-0.84,2.472c0,0,3.969,49.79,3.992,49.865v9.639   c0,1.891,1.539,3.429,3.429,3.429H58.75c1.891,0,3.429-1.538,3.429-3.429v-9.634C62.203,70.243,66.172,20.454,66.172,20.454z    M37.017,20.282c-0.026-0.327,0.073-0.631,0.281-0.856c0.207-0.225,0.502-0.348,0.828-0.348h24.811c0.328,0,0.622,0.124,0.83,0.349   c0.207,0.225,0.307,0.528,0.279,0.856l-3.849,48.646H40.868L37.017,20.282z M60.047,79.955c0,0.716-0.582,1.297-1.297,1.297H42.313   c-0.715,0-1.297-0.581-1.297-1.297v-8.895h19.031V79.955z"/><path d="M42.457,36.221l2.964,0.001c0.136,0.649,0.396,1.252,0.748,1.79l-2.436,2.436c-0.416,0.416-0.416,1.091,0,1.507   c0.208,0.208,0.481,0.312,0.754,0.312s0.545-0.104,0.753-0.312l2.437-2.436c0.537,0.353,1.14,0.613,1.789,0.748v2.963   c0,0.588,0.477,1.066,1.065,1.066c0.59,0,1.066-0.478,1.066-1.066v-2.963c0.649-0.135,1.252-0.396,1.789-0.748l2.437,2.437   c0.208,0.208,0.481,0.312,0.754,0.312s0.545-0.104,0.753-0.312c0.417-0.417,0.417-1.092,0-1.507l-2.437-2.437   c0.354-0.537,0.613-1.14,0.749-1.789h2.963c0.589,0,1.066-0.477,1.066-1.066c0-0.588-0.478-1.066-1.066-1.066h-2.963   c-0.136-0.649-0.396-1.252-0.749-1.789l2.437-2.437c0.417-0.416,0.417-1.091,0-1.507c-0.416-0.417-1.091-0.417-1.507,0   l-2.437,2.436c-0.537-0.353-1.14-0.613-1.789-0.748v-2.963c0-0.589-0.477-1.066-1.066-1.066c-0.589,0-1.065,0.477-1.065,1.066   v2.963c-0.649,0.135-1.252,0.396-1.789,0.748l-2.437-2.436c-0.416-0.417-1.09-0.417-1.507,0c-0.416,0.416-0.416,1.091,0,1.507   l2.436,2.436c-0.353,0.538-0.612,1.14-0.748,1.79l-2.964-0.001c-0.588,0-1.065,0.478-1.065,1.065   C41.392,35.744,41.868,36.221,42.457,36.221z M50.531,32.065c1.704,0,3.09,1.387,3.09,3.09s-1.386,3.089-3.09,3.089   s-3.09-1.386-3.09-3.089S48.827,32.065,50.531,32.065z"/><path d="M56.577,53.938H44.486c-0.59,0-1.066,0.477-1.066,1.065s0.477,1.065,1.066,1.065h12.091c0.589,0,1.065-0.477,1.065-1.065   S57.166,53.938,56.577,53.938z"/><path d="M54.65,58.664h-8.237c-0.59,0-1.066,0.478-1.066,1.065c0,0.589,0.477,1.066,1.066,1.066h8.237   c0.589,0,1.065-0.478,1.065-1.066C55.716,59.142,55.239,58.664,54.65,58.664z"/></g></svg>