<svg xmlns="http://www.w3.org/2000/svg" viewBox="0 0 1000 1250" version="1.1" x="0px" y="0px"><path fill="#000000" opacity="1.00" d=" M 136.96 337.06 C 169.93 314.76 210.26 303.59 250.00 305.82 C 286.90 307.42 323.19 320.88 352.35 343.50 C 354.82 342.58 357.35 341.65 360.03 341.74 C 443.02 341.77 526.01 341.74 608.99 341.76 C 613.68 341.81 618.47 341.31 623.05 342.64 C 656.34 317.57 698.22 304.03 739.93 305.65 C 775.09 306.61 809.92 317.92 838.86 337.95 C 841.16 337.13 843.54 336.37 846.03 336.48 C 881.03 336.52 916.03 336.50 951.03 336.49 C 954.10 336.40 957.16 337.37 959.58 339.29 C 962.59 341.82 966.73 342.66 969.35 345.69 C 972.00 348.42 973.41 352.22 973.26 356.03 C 973.23 385.33 973.25 414.63 973.25 443.93 C 973.40 449.18 970.24 454.19 965.66 456.64 C 962.15 458.32 960.38 462.20 956.83 463.81 C 953.82 465.42 950.32 465.29 947.02 465.27 C 937.02 465.20 927.02 465.29 917.03 465.22 C 921.96 499.93 916.56 535.98 901.76 567.75 C 891.38 589.93 876.69 610.21 858.47 626.59 C 847.73 636.08 836.31 644.91 823.58 651.58 C 811.48 658.67 798.24 663.47 784.89 667.57 C 770.65 672.03 755.70 673.33 740.90 674.44 C 720.75 674.32 700.32 673.00 681.00 666.81 C 663.29 661.45 646.34 653.48 631.01 643.09 C 622.56 637.70 615.27 630.78 607.63 624.34 C 583.16 601.48 565.41 571.68 556.38 539.47 C 554.53 531.98 552.99 524.42 551.57 516.84 C 548.91 497.03 549.05 476.81 552.77 457.14 C 511.86 438.04 462.63 437.96 421.76 457.22 C 427.44 486.77 425.07 517.59 416.20 546.27 C 405.65 579.15 385.79 609.14 359.08 631.12 C 336.89 650.47 309.55 663.57 280.93 670.16 C 265.86 673.53 250.37 674.17 234.99 674.48 C 220.68 673.51 206.25 672.29 192.38 668.40 C 181.96 665.24 171.58 661.79 161.68 657.22 C 151.95 652.23 142.27 647.05 133.39 640.65 C 121.93 631.89 110.74 622.63 101.36 611.62 C 73.32 579.55 56.63 537.59 55.85 494.92 C 55.22 484.98 56.52 475.09 57.48 465.22 C 47.66 465.28 37.83 465.21 28.01 465.27 C 25.13 465.33 22.17 464.84 19.70 463.27 C 16.79 461.59 15.22 458.30 12.09 456.92 C 7.30 454.54 3.83 449.44 4.00 444.01 C 3.99 414.66 4.02 385.30 3.99 355.95 C 3.73 350.29 7.23 344.73 12.40 342.45 C 14.87 341.38 16.98 339.70 19.23 338.25 C 22.74 336.00 27.08 336.53 31.04 336.49 C 61.34 336.52 91.64 336.49 121.94 336.50 C 126.94 336.55 131.99 336.18 136.96 337.06 M 233.49 335.58 C 204.75 336.99 176.36 346.33 152.69 362.75 C 121.10 384.43 97.80 418.18 89.71 455.73 C 88.57 460.07 87.49 464.45 87.23 468.95 C 86.62 476.94 85.11 484.91 85.65 492.96 C 86.26 515.29 91.33 537.64 101.39 557.64 C 117.11 591.04 145.83 617.74 179.63 632.29 C 188.82 635.83 198.15 639.19 207.80 641.22 C 221.33 643.69 235.18 645.28 248.93 644.05 C 284.11 642.82 318.43 628.05 344.29 604.30 C 349.60 599.94 354.25 594.86 358.60 589.56 C 375.51 569.43 387.47 544.97 391.99 519.02 C 394.18 509.84 394.68 500.40 395.00 491.01 C 395.30 479.70 393.26 468.52 391.43 457.41 C 386.09 433.33 375.07 410.54 359.42 391.47 C 354.47 385.49 348.80 380.18 343.28 374.74 C 313.64 348.04 273.31 333.84 233.49 335.58 M 728.43 335.57 C 692.97 337.02 657.92 350.75 631.55 374.60 C 603.54 399.44 584.82 434.78 580.87 472.08 C 578.54 488.33 579.43 505.03 583.00 521.03 C 588.82 551.18 604.42 579.19 626.18 600.76 C 634.97 608.43 643.72 616.29 653.91 622.11 C 672.52 633.31 693.43 640.95 715.08 643.31 C 725.37 644.00 735.72 645.25 746.02 643.96 C 791.51 641.22 834.85 616.25 860.76 578.88 C 879.65 552.26 889.49 519.46 888.94 486.86 C 888.06 476.22 887.63 465.42 884.75 455.08 C 877.22 421.67 857.96 391.09 831.18 369.77 C 802.64 346.35 765.26 334.17 728.43 335.57 M 33.75 366.25 C 33.75 368.24 33.75 370.24 33.75 372.25 C 55.19 372.25 76.64 372.27 98.08 372.24 C 99.89 370.24 101.69 368.23 103.50 366.24 C 80.25 366.26 57.00 366.24 33.75 366.25 M 871.06 366.19 C 872.92 368.04 874.64 370.04 876.24 372.14 C 898.64 372.40 921.05 372.18 943.46 372.25 C 943.49 370.28 943.54 368.31 943.61 366.36 C 919.43 366.06 895.24 366.40 871.06 366.19 M 381.68 371.47 C 384.09 373.97 385.98 376.90 388.36 379.42 C 390.83 378.56 393.29 377.39 395.98 377.50 C 457.65 377.50 519.33 377.52 581.01 377.49 C 583.09 377.48 585.12 377.95 587.15 378.40 C 589.09 376.12 591.01 373.81 592.88 371.46 C 522.48 371.53 452.08 371.51 381.68 371.47 M 33.75 402.00 C 33.74 413.17 33.75 424.33 33.75 435.49 C 43.78 435.73 53.85 435.03 63.85 435.90 C 67.40 424.14 72.27 412.82 78.09 402.01 C 63.31 401.99 48.53 402.00 33.75 402.00 M 896.52 402.04 C 902.69 413.09 907.26 424.91 911.19 436.92 C 913.37 436.17 915.60 435.40 917.95 435.49 C 926.47 435.49 934.98 435.51 943.50 435.50 C 943.50 424.33 943.50 413.17 943.50 402.00 C 927.84 402.02 912.18 401.95 896.52 402.04 M 405.17 407.22 C 408.43 413.93 411.61 420.69 414.01 427.77 C 441.82 415.40 472.78 411.15 503.02 413.48 C 522.79 414.93 542.30 419.80 560.47 427.70 C 562.95 420.68 566.07 413.92 569.33 407.24 C 514.61 407.24 459.89 407.28 405.17 407.22 Z"/><path fill="#000000" opacity="1.00" d=" M 121.34 455.49 C 128.61 452.80 137.38 456.66 140.23 463.88 C 142.95 470.10 139.50 476.57 139.30 482.91 C 138.68 489.09 139.91 496.29 135.32 501.28 C 129.72 508.40 117.64 508.28 112.21 501.01 C 107.12 495.17 109.49 487.00 109.51 480.03 C 110.24 474.06 110.56 467.78 113.29 462.31 C 115.06 459.19 117.95 456.70 121.34 455.49 Z"/><path fill="#000000" opacity="1.00" d=" M 846.32 455.41 C 854.08 452.64 863.43 457.41 865.49 465.42 C 867.40 474.79 868.75 484.39 868.12 493.96 C 867.23 501.52 859.62 507.43 852.07 506.51 C 845.12 506.13 838.87 500.04 838.56 493.05 C 838.88 484.56 836.40 476.32 836.27 467.90 C 836.74 462.22 840.98 457.21 846.32 455.41 Z"/><path fill="#000000" opacity="1.00" d=" M 125.22 513.20 C 130.19 511.58 136.07 512.49 139.97 516.09 C 143.65 519.20 144.94 523.99 146.68 528.29 C 157.75 553.75 180.14 573.72 206.30 582.77 C 212.47 584.69 217.81 590.21 217.79 596.95 C 218.46 604.75 211.82 612.22 204.01 612.52 C 199.82 612.93 195.93 611.07 192.14 609.58 C 157.21 595.99 127.92 567.22 115.75 531.53 C 113.40 524.12 117.88 515.60 125.22 513.20 Z"/><path fill="#000000" opacity="1.00" d=" M 842.21 513.20 C 848.62 510.95 856.26 513.56 859.82 519.39 C 862.57 523.58 862.67 529.13 860.77 533.69 C 848.59 567.33 821.17 594.58 788.33 608.32 C 781.98 610.93 774.72 614.56 767.95 611.18 C 760.03 607.67 756.90 596.90 761.66 589.68 C 764.11 585.49 768.74 583.50 773.13 582.00 C 799.47 572.24 821.85 551.34 831.95 524.97 C 833.50 519.83 836.89 514.91 842.21 513.20 Z"/></svg>