<svg xmlns="http://www.w3.org/2000/svg" viewBox="0 0 100 125" x="0px" y="0px"><title>Noun_Project_100Icon_1px_grid_travel_exp</title><g data-name="Layer 2"><path d="M54.376,46.34326c-1.043-.98389-2.998-2.12109-6.36133-1.915-.98706.05792-2.25854.16687-3.703.30939l-13.90784-8.409a1.00153,1.00153,0,0,0-.51758-.144h-2.374a1.0002,1.0002,0,0,0-.82324,1.56787l5.76825,8.36035c-4.59363.58057-8.67657,1.13312-10.18378,1.33887l-2.34229-3.19824a.99875.99875,0,0,0-.80664-.40918H16.43018a1.0003,1.0003,0,0,0-.9668,1.25635l1.91211,7.20605a1.00079,1.00079,0,0,0,.9668.74365h.01953c.00342-.00049,1.65674-.03223,3.457-.03223H33.313L31.06543,63.73779a.9996.9996,0,0,0,.97852,1.20508h2.80566a.99991.99991,0,0,0,.81885-.42578l8.06738-11.499,4.67236.00049c3.646.021,6.32129-.19482,7.36768-1.23877a1.66965,1.66965,0,0,0,.51514-1.19922A6.05079,6.05079,0,0,0,54.376,46.34326ZM29.417,38.18457h.19043l11.41266,6.90063c-2.01764.22473-4.19.48407-6.32574.748Zm18.99707,12.834-5.19824-.00049a.99991.99991,0,0,0-.81885.42578l-8.06738,11.499h-1.0542l2.24756-10.71973a.9996.9996,0,0,0-.97852-1.20508H21.81885c-1.05029,0-2.05127.01074-2.71045.02L17.73,45.84424h.88721l2.395,3.27a.99925.99925,0,0,0,.94336.3999c.1958-.02734,19.69287-2.7085,26.17627-3.08984a6.31845,6.31845,0,0,1,4.87207,1.374,4.10228,4.10228,0,0,1,1.28223,2.62891C53.9165,50.67871,52.62256,51.03418,48.41406,51.01855ZM9,70H91a1,1,0,0,0,1-1V56a1,1,0,0,0-1-1,5,5,0,0,1,0-10,1,1,0,0,0,1-1V31a1,1,0,0,0-1-1H9a1,1,0,0,0-1,1V69A1,1,0,0,0,9,70Zm1-38H62.30859v1.5a1,1,0,0,0,2,0V32H90V43.07129a7.00059,7.00059,0,0,0,0,13.85742V68H64.30859V66.5a1,1,0,0,0-2,0V68H10ZM62.30859,42.92871V38.21436a1,1,0,0,1,2,0v4.71436a1,1,0,0,1-2,0Zm0,9.42871V47.64307a1,1,0,0,1,2,0v4.71436a1,1,0,1,1-2,0Zm0,9.42822V57.07129a1,1,0,0,1,2,0v4.71436a1,1,0,0,1-2,0Zm6.99658-23.14746a1,1,0,0,1,1-1H83.68506a1,1,0,0,1,0,2H70.30518A1,1,0,0,1,69.30518,38.63818Zm0,24.48193a1,1,0,0,1,1-1H83.68506a1,1,0,1,1,0,2H70.30518A1,1,0,0,1,69.30518,63.12012Zm0-18.8916a1,1,0,0,1,1-1h6.022a1,1,0,0,1,0,2h-6.022A1,1,0,0,1,69.30518,44.22852Zm0,5.59033a1,1,0,0,1,1-1h6.022a1,1,0,0,1,0,2h-6.022A1,1,0,0,1,69.30518,49.81885Z"/></g></svg>