<svg xmlns="http://www.w3.org/2000/svg" data-name="Layer 1" viewBox="0 0 100 100" x="0px" y="0px"><title>Artboard 45</title><path d="M86.5,62H86V44.5A3.5,3.5,0,0,0,82.5,41H80.19A20.47,20.47,0,0,0,90,23.5V21.67L88.2,22a95.24,95.24,0,0,1-32.86.41,20.16,20.16,0,0,0-10.82,1.18A20.47,20.47,0,0,0,32,42.5v1.8L33.77,44c1.47-.27,3-.49,4.46-.69A3.46,3.46,0,0,0,38,44.5V62H9.5a1.5,1.5,0,0,0,0,3h77a2.5,2.5,0,0,1,0,5H9.5a1.5,1.5,0,0,0,0,3h77a5.5,5.5,0,0,0,0-11ZM35.09,40.7a17.47,17.47,0,0,1,10.6-14.33,17.2,17.2,0,0,1,9.21-1,99.54,99.54,0,0,0,32-.07A17.06,17.06,0,0,1,67.23,40.66a124.42,124.42,0,0,0-16.6-1.17A97,97,0,0,0,35.09,40.7ZM83,62H41V44.5a.5.5,0,0,1,.5-.5h2.93V57.5a1.5,1.5,0,0,0,3,0V44h3.43V57.5a1.5,1.5,0,0,0,3,0V44h3.43V57.5a1.5,1.5,0,0,0,3,0V44h3.43V57.5a1.5,1.5,0,0,0,3,0V44h3.43V57.5a1.5,1.5,0,1,0,3,0V44h3.43V57.5a1.5,1.5,0,0,0,3,0V44H82.5a.5.5,0,0,1,.5.5Z"/></svg>