<svg xmlns="http://www.w3.org/2000/svg" xmlns:xlink="http://www.w3.org/1999/xlink" version="1.1" x="0px" y="0px" viewBox="0 0 100 100" style="enable-background:new 0 0 100 100;" xml:space="preserve"><g><path d="M60.5,10.5H39.5c-3.6,0-6.5,2.9-6.5,6.5v4.1H18.3c-1.4,0-2.5,1.1-2.5,2.5s1.1,2.5,2.5,2.5h1.1V80c0,4.7,3.8,8.5,8.5,8.5   h44.2c4.7,0,8.5-3.8,8.5-8.5V26.1h1.1c1.4,0,2.5-1.1,2.5-2.5s-1.1-2.5-2.5-2.5H67V17C67,13.4,64.1,10.5,60.5,10.5z M38,17   c0-0.8,0.7-1.5,1.5-1.5h20.9c0.8,0,1.5,0.7,1.5,1.5v4.1H38V17z M75.6,80c0,1.9-1.6,3.5-3.5,3.5H27.9c-1.9,0-3.5-1.6-3.5-3.5V26.1   h51.2V80z"/></g></svg>